<svg width="631" height="664" viewBox="0 0 631 664" fill="none" xmlns="http://www.w3.org/2000/svg">
<g filter="url(#filter0_d_11_79)">
<path d="M304.04 59.7326C304.175 59.6853 304.323 59.6897 304.454 59.7462C304.586 59.8028 304.692 59.9075 304.751 60.0382C305.04 60.6807 305.348 61.3154 305.663 61.9386V195.403C305.478 195.02 305.299 194.632 305.127 194.242C305.111 194.205 305.083 194.172 305.049 194.149C305.015 194.125 304.974 194.112 304.933 194.11C304.891 194.109 304.85 194.119 304.814 194.14C304.778 194.161 304.748 194.191 304.729 194.228C303.582 196.433 302.471 198.67 301.395 200.937C300.894 201.99 299.803 203.863 299.117 205.359C297.528 208.839 296.095 211.833 294.818 214.341C294.046 215.856 293.237 217.544 292.39 219.403C290.411 223.74 288.193 228.135 286.332 232.092C277.018 251.906 270.464 265.919 263.741 279.823C261.147 285.187 259.467 288.743 258.703 290.489C257.188 293.962 255.764 297.094 254.43 299.882C253.56 301.697 252.116 304.82 250.097 309.251C248.191 313.434 245.952 318.286 243.38 323.808C240.919 329.091 239.264 333.027 236.954 337.927C235.709 340.562 234.102 344.091 232.132 348.512C229.855 353.626 228.023 357.777 226.638 360.965C224.533 365.816 222.359 370.655 220.114 375.482C219.207 377.43 218.573 379.637 217.645 381.185C216.912 382.408 216.646 383.477 215.957 385.083C215.92 385.17 215.912 385.266 215.935 385.358C215.958 385.449 216.011 385.53 216.084 385.589C216.158 385.648 216.248 385.681 216.342 385.684C216.436 385.686 216.529 385.658 216.606 385.603L217.903 384.674C217.954 384.635 218.009 384.603 218.065 384.578C219.56 383.93 220.854 383.164 222.294 382.523C263.292 364.357 331.577 364.46 348.564 375.482C292.39 375.482 232.131 415.311 191.054 471.814C189.421 473.771 187.272 476.67 184.607 480.509C182.291 483.844 180.336 486.88 178.742 489.613C174.969 496.083 171.882 501.929 169.483 507.151C165.948 514.841 163.339 520.862 161.657 525.212C159.711 530.237 158.031 534.335 156.675 538.027C154.807 543.114 152.777 548.398 151.119 553.279C147.934 562.678 146.227 567.722 145.998 568.411C143.999 574.395 142.016 580.957 140.051 588.097C139.437 590.322 138.674 592.731 137.763 595.322C137.695 595.517 137.566 595.687 137.397 595.806C137.227 595.924 137.024 595.987 136.817 595.985C135.365 595.974 134.101 596.125 132.575 596.129C105.997 596.133 95.5802 596.04 66.846 596.125C65.8268 596.128 64.8496 596.008 63.9163 595.765C63.8773 595.754 63.8405 595.735 63.8089 595.71C63.7774 595.685 63.7514 595.653 63.7327 595.617C63.7141 595.581 63.7031 595.541 63.7005 595.501C63.698 595.461 63.7039 595.419 63.7181 595.381C64.9167 592.222 66.0592 588.925 67.1448 585.488C69.3038 578.661 70.8733 574.542 73.1097 567.788C75.3682 560.969 78.0545 553.865 80.3646 547.359C84.631 535.343 88.8554 523.786 93.0384 512.689C94.2051 509.591 95.5845 505.85 97.1761 501.466C98.0382 499.086 98.8362 497.036 99.5706 495.317C100.731 492.59 101.579 489.823 102.692 487.093C104.35 483.018 106.786 476.756 110.001 468.307C113.42 459.328 118.546 446.933 122.58 436.772C125.199 430.177 127.09 425.471 128.257 422.656C140.315 393.57 149.056 372.923 154.48 360.715C155.369 358.718 157.433 354.054 160.673 346.725C161.911 343.927 164.968 337.041 169.843 326.067C172.617 319.822 174.932 314.966 178.089 308.058C180.054 303.759 184.112 295.023 190.262 281.85C192.851 276.311 195.161 271.465 197.193 267.312C200.317 260.923 203.102 254.817 206.462 247.939C210.438 239.8 215.722 228.485 220.043 219.93C222.73 214.607 225.691 208.655 228.923 202.075C232.256 195.291 236.247 187.375 240.894 178.329C248.058 164.386 252.113 156.508 253.059 154.694C255.972 149.124 260.895 139.741 267.829 126.549C276.292 110.452 286.595 91.7903 295.235 75.38C296.495 72.9816 297.994 70.4757 299.327 67.9484C300.993 64.7775 302.518 62.0992 303.901 59.9132C303.972 59.8005 304.018 59.7399 304.04 59.7326ZM325.813 59.7462C325.944 59.69 326.092 59.6853 326.227 59.7326C326.249 59.7409 326.296 59.8014 326.367 59.9132C327.749 62.0991 329.274 64.7777 330.939 67.9484C332.272 70.4758 333.773 72.9816 335.033 75.38C343.672 91.7902 353.974 110.452 362.437 126.549C369.371 139.741 374.294 149.124 377.207 154.694C378.153 156.508 382.209 164.386 389.373 178.329C394.021 187.375 398.011 195.291 401.344 202.075C404.576 208.656 407.537 214.607 410.224 219.93C414.546 228.485 419.829 239.8 423.804 247.939C427.164 254.817 429.949 260.923 433.074 267.312C435.105 271.465 437.415 276.311 440.004 281.85C446.155 295.022 450.213 303.759 452.178 308.058C455.335 314.965 457.649 319.822 460.423 326.067C465.299 337.041 468.356 343.927 469.594 346.725C472.834 354.054 474.898 358.718 475.787 360.715C481.211 372.923 489.952 393.57 502.009 422.656C503.176 425.471 505.069 430.177 507.687 436.772C511.721 446.933 516.846 459.328 520.265 468.307C523.48 476.756 525.918 483.018 527.576 487.093C528.688 489.823 529.535 492.59 530.696 495.317C531.43 497.036 532.228 499.086 533.09 501.466C534.682 505.85 536.062 509.591 537.229 512.689C541.412 523.786 545.636 535.343 549.903 547.359C552.213 553.865 554.899 560.969 557.158 567.788C559.394 574.542 560.963 578.661 563.122 585.488C564.208 588.924 565.351 592.222 566.549 595.381C566.563 595.419 566.569 595.461 566.567 595.501C566.564 595.541 566.553 595.581 566.534 595.617C566.516 595.653 566.489 595.685 566.457 595.71C566.426 595.735 566.389 595.754 566.35 595.765C565.417 596.008 564.439 596.128 563.42 596.125C534.686 596.04 524.27 596.133 497.691 596.129C496.166 596.125 494.902 595.974 493.451 595.985C493.243 595.987 493.039 595.925 492.869 595.806C492.7 595.687 492.572 595.517 492.503 595.322C491.592 592.731 490.829 590.322 490.215 588.097C488.25 580.957 486.268 574.395 484.269 568.411C484.04 567.722 482.333 562.678 479.148 553.279C477.49 548.398 475.459 543.114 473.591 538.027C472.235 534.335 470.555 530.237 468.61 525.212C466.927 520.862 464.319 514.841 460.784 507.151C458.385 501.929 455.298 496.083 451.526 489.613C449.932 486.88 447.976 483.844 445.659 480.509C442.995 476.67 440.846 473.771 439.212 471.814C434.582 466.258 429.617 460.972 424.317 455.956C420.244 452.105 416.065 448.628 411.782 445.526C406.722 441.856 402.201 438.833 398.22 436.458C392.698 433.162 386.616 430.096 379.974 427.262C378.149 426.483 375.394 425.405 371.71 424.027C318.521 404.118 257.278 445.526 236.521 480.509C255.279 436.714 318.536 372.304 413.661 385.603C415.05 386.603 412.829 381.53 412.622 381.185C411.694 379.637 411.06 377.43 410.154 375.482C407.909 370.655 405.733 365.816 403.628 360.965C402.243 357.777 400.412 353.626 398.135 348.512C396.165 344.091 394.557 340.562 393.312 337.927C391.002 333.027 389.347 329.091 386.886 323.808C384.315 318.287 382.076 313.434 380.17 309.251C378.151 304.821 376.707 301.697 375.837 299.882C374.504 297.094 373.078 293.962 371.563 290.489C370.799 288.743 369.12 285.187 366.527 279.823C359.803 265.919 353.248 251.906 343.934 232.092C342.073 228.135 339.855 223.74 337.876 219.403C337.029 217.544 336.22 215.856 335.449 214.341C334.171 211.833 332.738 208.839 331.149 205.359C330.463 203.863 329.372 201.99 328.871 200.937C327.796 198.67 326.684 196.433 325.537 194.228C325.518 194.191 325.488 194.161 325.452 194.14C325.417 194.119 325.375 194.109 325.333 194.11C325.292 194.112 325.251 194.125 325.217 194.149C325.183 194.172 325.157 194.205 325.14 194.242C324.969 194.632 324.789 195.02 324.604 195.403V61.9386C324.92 61.3153 325.227 60.6807 325.516 60.0382C325.575 59.9075 325.681 59.8028 325.813 59.7462Z" fill="white"/>
</g>
<defs>
<filter id="filter0_d_11_79" x="-4.95911e-05" y="0.00019455" width="630.267" height="663.829" filterUnits="userSpaceOnUse" color-interpolation-filters="sRGB">
<feFlood flood-opacity="0" result="BackgroundImageFix"/>
<feColorMatrix in="SourceAlpha" type="matrix" values="0 0 0 0 0 0 0 0 0 0 0 0 0 0 0 0 0 0 127 0" result="hardAlpha"/>
<feOffset dy="4"/>
<feGaussianBlur stdDeviation="31.85"/>
<feComposite in2="hardAlpha" operator="out"/>
<feColorMatrix type="matrix" values="0 0 0 0 1 0 0 0 0 1 0 0 0 0 1 0 0 0 0.3 0"/>
<feBlend mode="normal" in2="BackgroundImageFix" result="effect1_dropShadow_11_79"/>
<feBlend mode="normal" in="SourceGraphic" in2="effect1_dropShadow_11_79" result="shape"/>
</filter>
</defs>
</svg>
